<svg width="1200" height="865" viewBox="0 0 1200 865" fill="none" xmlns="http://www.w3.org/2000/svg">
<path d="M2.5 10C2.5 5.85787 5.85787 2.5 10 2.5H1190C1194.14 2.5 1197.5 5.85787 1197.5 10V798.775C1197.5 802.917 1194.14 806.275 1190 806.275H812.5C805.596 806.275 800 811.871 800 818.775V855C800 859.142 796.642 862.5 792.5 862.5H407.5C403.358 862.5 400 859.142 400 855V818.775C400 811.871 394.404 806.275 387.5 806.275H9.99999C5.85786 806.275 2.5 802.917 2.5 798.775V10Z" fill="#E3DAC1" stroke="#BC894D" stroke-width="5"/>
</svg>
