<svg width="1920" height="1080" viewBox="0 0 1920 1080" fill="none" xmlns="http://www.w3.org/2000/svg">
<rect width="1920" height="1080" fill="#6F6962"/>
<path d="M39 55.045C39 50.178 41.9398 45.7929 46.4421 43.9443L87.6521 27.0236C105.079 19.8684 124.357 18.5628 142.589 23.3032L180.63 33.1939C186.203 34.6428 190.746 38.6704 192.853 44.0293L206.25 78.1102C213.828 97.3866 214.194 118.75 207.282 138.275L197.807 165.038C192.954 178.744 179.228 187.236 164.797 185.46L107.235 178.375C97.4112 177.166 88.3566 172.444 81.7423 165.081L45.402 124.627C41.2801 120.038 39 114.088 39 107.92V55.045Z" fill="#989590"/>
<path d="M214.427 61.2539C207.942 45.3478 216.111 27.2549 232.331 21.6003L250.008 15.4375C254.601 13.8365 259.513 13.376 264.323 14.0955L366.032 29.3119C377.077 30.9643 386.29 38.615 389.943 49.1684L401.31 82.0056C404.557 91.3862 402.953 101.766 397.027 109.729L379.292 133.561C376.153 137.779 371.959 141.099 367.132 143.186L308.226 168.659C303.173 170.844 297.616 171.597 292.163 170.834L254.845 165.615C240.026 163.542 229 150.867 229 135.904V102.88C229 98.9971 228.246 95.1507 226.78 91.5547L214.427 61.2539Z" fill="#989590"/>
<path d="M552.4 310.537C557.295 304.716 564.159 300.898 571.686 299.809L594.127 296.561C596.699 296.188 599.307 296.141 601.891 296.42L637.894 300.302C645.072 301.076 652.295 299.321 658.317 295.339L663.665 291.802C673.643 285.204 686.527 284.935 696.771 291.112L706.036 296.698C711.231 299.83 715.393 304.418 718.006 309.893L728.895 332.708C732.772 340.832 732.927 350.239 729.319 358.486L721.577 376.181C716.924 386.816 706.719 393.961 695.134 394.694L635 398.5L573.953 394.43C565.081 393.839 556.891 389.467 551.463 382.425L538.24 365.271C529.343 353.729 529.687 337.548 539.066 326.394L552.4 310.537Z" fill="#989590"/>
<path d="M23.6755 749.972C25.3877 744.276 30.1183 740 35.9579 738.869L179.373 711.112C183.083 710.394 186.928 711.012 190.225 712.858L230.783 735.55C236.373 738.678 239.559 744.84 238.88 751.21L226.98 862.787C226.684 865.557 227.117 868.356 228.235 870.907L241.248 900.595C244.921 908.976 240.831 918.724 232.277 921.975L130.602 960.611C125.825 962.427 120.468 961.851 116.186 959.062L32.1934 904.353C28.5317 901.968 26.0048 898.189 25.1998 893.893L8.71701 805.948C8.24587 803.434 8.38421 800.844 9.12042 798.395L23.6755 749.972Z" fill="#989590"/>
<path d="M445.77 651.304C448.465 641.871 454.996 634.002 463.771 629.614L498.293 612.354C501.413 610.793 504.75 609.708 508.191 609.135L565.91 599.515C575.53 597.912 585.384 600.395 593.095 606.368L618.432 625.991C626.99 632.62 632 642.836 632 653.662V674.842C632 696.416 612.67 712.853 591.376 709.387L572.592 706.329C569.216 705.779 565.777 705.728 562.385 706.176L498.781 714.576C491.759 715.504 484.621 714.279 478.311 711.064L460.685 702.085C445.766 694.485 438.319 677.382 442.919 661.283L445.77 651.304Z" fill="#989590"/>
<path d="M254.322 745.268C254.712 739.36 259.353 734.62 265.251 734.104L356.96 726.091C357.652 726.03 358.348 726.03 359.04 726.09L452.32 734.162C457.964 734.651 462.498 739.02 463.195 744.642L475.82 846.544C475.939 847.511 475.941 848.489 475.824 849.457L463.418 952.25C462.632 958.765 456.757 963.441 450.231 962.744L304.689 947.214C300.534 946.77 296.909 944.197 295.119 940.421L249.336 843.818C248.46 841.97 248.071 839.929 248.205 837.888L254.322 745.268Z" fill="#989590"/>
<path d="M1675.27 56.9207C1675.72 53.8586 1677.72 51.2458 1680.56 50.0032L1719.84 32.7874C1720.28 32.5961 1720.73 32.4398 1721.19 32.3199L1775.67 18.1642C1780.33 16.9536 1785.12 19.6234 1786.54 24.2236L1803.66 79.7862C1804.21 81.5525 1804.2 83.4436 1803.63 85.2025L1785.64 140.914C1784.63 144.049 1781.99 146.381 1778.75 146.992L1722.24 157.671C1721.09 157.888 1719.91 157.879 1718.76 157.644L1670.35 147.713C1665.67 146.752 1662.55 142.298 1663.26 137.57L1675.27 56.9207Z" fill="#989590"/>
<path d="M1365.65 931.807C1369.86 915.871 1385.19 905.489 1401.55 907.488L1479.63 917.028C1482.2 917.341 1484.8 917.352 1487.37 917.059L1582.4 906.232C1594.47 904.858 1606.32 910.224 1613.25 920.202L1630.94 945.681C1638.79 956.997 1638.79 972.003 1630.94 983.319L1611.84 1010.82C1605.68 1019.7 1595.55 1025 1584.74 1025H1458.5H1398.41C1383.43 1025 1370.33 1014.92 1366.5 1000.44L1359.23 972.937C1357.77 967.407 1357.77 961.593 1359.23 956.063L1365.65 931.807Z" fill="#989590"/>
<path d="M1656.61 724.211C1658.68 711.255 1668.02 700.648 1680.61 696.956L1747.31 677.402C1752.69 675.825 1758.37 675.602 1763.85 676.752L1873.26 699.7C1883.23 701.789 1891.73 708.232 1896.43 717.257L1911.24 745.65C1916.41 755.573 1916.37 767.406 1911.13 777.293L1861.76 870.422C1856.58 880.19 1856.47 891.865 1861.47 901.725L1885.32 948.75C1887.74 953.516 1889 958.785 1889 964.129V1017.57C1889 1034.89 1875.97 1049.45 1858.75 1051.36L1775.84 1060.57C1773.29 1060.86 1770.71 1060.85 1768.16 1060.55L1693.98 1051.94C1675.25 1049.77 1661.86 1032.77 1664.15 1014.05L1672.8 943.25C1673.26 939.444 1673.08 935.587 1672.26 931.842L1645.38 809.294C1644.47 805.135 1644.35 800.842 1645.02 796.638L1656.61 724.211Z" fill="#989590"/>
<path d="M597.253 859.803C598.02 856.543 600.533 853.978 603.776 853.145L707.262 826.575C708.73 826.198 710.27 826.198 711.738 826.575L815.667 853.259C818.674 854.031 821.07 856.298 822.008 859.256L852.096 954.149C852.683 956 852.656 957.991 852.018 959.825L822.334 1045.22C821.211 1048.46 818.353 1050.77 814.959 1051.2L710.626 1064.36C709.878 1064.45 709.122 1064.45 708.374 1064.36L602.736 1051.03C600.055 1050.7 597.668 1049.17 596.234 1046.88L566.992 1000.18C565.717 998.146 565.309 995.684 565.859 993.346L597.253 859.803Z" fill="#989590"/>
<path d="M1693 313.881C1693 308.815 1696.79 304.549 1701.82 303.951L1817.78 290.158C1818.66 290.053 1819.56 290.066 1820.43 290.197L1911.47 303.732C1916.37 304.461 1920 308.668 1920 313.623V443.478C1920 446.915 1918.24 450.111 1915.33 451.941L1867.79 481.862C1865.61 483.234 1862.99 483.712 1860.46 483.197L1701 450.633C1696.34 449.683 1693 445.587 1693 440.836V313.881Z" fill="#989590"/>
<path d="M842.799 60.8979C843.834 56.6991 847.234 53.4968 851.487 52.714L916.445 40.7586C921.903 39.754 927.254 42.9724 928.926 48.2644L940.489 84.8831C940.828 85.9547 941 87.0718 941 88.1956V151.517C941 156.966 937.01 161.594 931.62 162.397L875.825 170.707C872.465 171.207 869.063 170.128 866.607 167.782L830.609 133.402C827.758 130.679 826.582 126.64 827.526 122.812L842.799 60.8979Z" fill="#989590"/>
<path d="M957.612 56.9974C956.709 46.9149 963.869 37.8949 973.894 36.4873L1068.82 23.157C1071.89 22.7256 1075.02 23.053 1077.94 24.1105L1107.64 34.8803C1114.57 37.3941 1119.42 43.6916 1120.09 51.0355L1135.74 224.583C1135.91 226.516 1135.79 228.465 1135.37 230.361L1121.65 292.922C1120.04 300.265 1114.25 305.968 1106.88 307.468L1041.77 320.732C1039.28 321.239 1036.72 321.242 1034.23 320.741L972.718 308.364C963.207 306.45 956.666 297.679 957.544 288.017L967.845 174.707C967.948 173.571 967.949 172.429 967.847 171.292L957.612 56.9974Z" fill="#989590"/>
</svg>
