<svg width="45" height="45" viewBox="0 0 45 45" fill="none" xmlns="http://www.w3.org/2000/svg">
<g clip-path="url(#clip0_684_16577)">
<path d="M0 5C0 2.23858 2.23858 0 5 0L40 0C42.7614 0 45 2.23858 45 5L45 17.5C45 20.2614 42.7614 22.5 40 22.5L27.5 22.5C24.7386 22.5 22.5 24.7386 22.5 27.5L22.5 40C22.5 42.7614 20.2614 45 17.5 45L5 45C2.23858 45 0 42.7614 0 40L0 5Z" fill="#BC894D"/>
<path d="M11.5 16C11.5 13.2386 13.7386 11 16.5 11L45 11V17.5C45 20.2614 42.7614 22.5 40 22.5L27.5 22.5C24.7386 22.5 22.5 24.7386 22.5 27.5L22.5 40C22.5 42.7614 20.2614 45 17.5 45H11.5L11.5 16Z" fill="#865C2B"/>
</g>
<defs>
<clipPath id="clip0_684_16577">
<rect width="45" height="45" fill="white" transform="matrix(0 1 -1 0 45 0)"/>
</clipPath>
</defs>
</svg>
