<svg width="95" height="96" viewBox="0 0 95 96" fill="none" xmlns="http://www.w3.org/2000/svg">
<path d="M95 48C95 74.2335 73.7335 95.5 47.5 95.5C21.2665 95.5 0 74.2335 0 48C0 21.7665 21.2665 0.5 47.5 0.5C73.7335 0.5 95 21.7665 95 48Z" fill="#F8D146"/>
<path d="M49 60.5V50.5H74C76.7614 50.5 79 52.7386 79 55.5C79 58.2614 76.7614 60.5 74 60.5H49Z" fill="white"/>
<path d="M39 26.5C39 23.7386 41.2386 21.5 44 21.5C46.7614 21.5 49 23.7386 49 26.5V60.5H45C41.6863 60.5 39 57.8137 39 54.5V26.5Z" fill="white"/>
</svg>
